<?xml version="1.0" encoding="UTF-8"?>
<svg width="64px" height="64px" viewBox="0 0 64 64" version="1.1" xmlns="http://www.w3.org/2000/svg">
    <g stroke="none" stroke-width="1" fill="none" fill-rule="evenodd">
        <path d="M48,24 C52.4,24 56,27.6 56,32 C56,36.4 52.4,40 48,40 L24,40 C19.6,40 16,36.4 16,32 C16,27.6 19.6,24 24,24 C24.8,24 25.6,24.1 26.4,24.3 C27.4,20 31.2,17 35.5,17 C40.5,17 44.5,21 44.5,26 C44.5,26.8 44.4,27.6 44.2,28.4 C45.3,28.1 46.4,24 48,24 Z" fill="#FFFFFF"/>
    </g>
</svg>
