<?xml version="1.0" encoding="UTF-8"?>
<svg width="64px" height="64px" viewBox="0 0 64 64" version="1.1" xmlns="http://www.w3.org/2000/svg">
    <g stroke="none" stroke-width="1" fill="none" fill-rule="evenodd">
        <circle fill="#FFD700" cx="32" cy="32" r="12"/>
        <path d="M45,28 C48.9,28 52,31.1 52,35 C52,38.9 48.9,42 45,42 L25,42 C21.1,42 18,38.9 18,35 C18,31.1 21.1,28 25,28 C25.7,28 26.4,28.1 27,28.3 C27.9,24.6 31.1,22 35,22 C39.4,22 43,25.6 43,30 C43,30.7 42.9,31.4 42.7,32 C43.4,31.9 44.2,28 45,28 Z" fill="#FFFFFF"/>
    </g>
</svg>
