<?xml version="1.0" encoding="UTF-8"?>
<svg width="24px" height="24px" viewBox="0 0 24 24" version="1.1" xmlns="http://www.w3.org/2000/svg">
    <g stroke="none" stroke-width="1" fill="none" fill-rule="evenodd">
        <path d="M12,3 C13.6568542,3 15,4.34314575 15,6 L15,14.1578947 C16.2176535,14.9425304 17,16.3674095 17,18 C17,20.7614237 14.7614237,23 12,23 C9.23857625,23 7,20.7614237 7,18 C7,16.3674095 7.78234646,14.9425304 9,14.1578947 L9,6 C9,4.34314575 10.3431458,3 12,3 Z M12,5 C11.4477153,5 11,5.44771525 11,6 L11,15.1052632 L10.5789474,15.3508772 C9.6268463,15.9133924 9,16.8834733 9,18 C9,19.6568542 10.3431458,21 12,21 C13.6568542,21 15,19.6568542 15,18 C15,16.8834733 14.3731537,15.9133924 13.4210526,15.3508772 L13,15.1052632 L13,6 C13,5.44771525 12.5522847,5 12,5 Z" fill="#4CAF50" fill-rule="nonzero"></path>
        <rect fill="#4CAF50" x="11" y="8" width="2" height="6" rx="1"></rect>
    </g>
</svg>
